<?xml version="1.0" standalone="no"?>
<!DOCTYPE svg PUBLIC "-//W3C//DTD SVG 20010904//EN"
 "http://www.w3.org/TR/2001/REC-SVG-20010904/DTD/svg10.dtd">
<svg version="1.0" xmlns="http://www.w3.org/2000/svg"
 width="512.000000pt" height="512.000000pt" viewBox="0 0 512.000000 512.000000"
 preserveAspectRatio="xMidYMid meet">
<metadata>
Created by potrace 1.14, written by Peter Selinger 2001-2017
</metadata>
<g transform="translate(0.000000,512.000000) scale(0.100000,-0.100000)"
fill="#000000" stroke="none">
<path d="M1820 4144 c-450 -14 -970 -36 -1045 -45 -389 -48 -573 -231 -654
-653 -42 -216 -61 -555 -61 -1071 0 -743 45 -1107 168 -1350 86 -172 270 -283
531 -320 423 -59 2345 -74 3276 -25 366 20 445 33 584 101 195 96 315 289 365
589 63 379 76 1299 26 1845 -29 316 -99 538 -210 667 -48 55 -156 130 -237
163 -123 49 -224 60 -823 86 -237 10 -1686 20 -1920 13z m1781 -540 c7 -8 20
-13 30 -11 9 3 27 -5 40 -17 13 -12 36 -29 52 -39 15 -10 27 -24 27 -33 0 -8
8 -27 18 -41 16 -25 17 -84 20 -816 2 -715 1 -791 -13 -807 -9 -10 -15 -27
-13 -37 4 -25 -63 -103 -105 -121 -77 -34 -113 -36 -871 -39 -694 -3 -761 -2
-777 13 -10 9 -30 18 -45 20 -14 1 -38 14 -53 28 -15 14 -31 26 -37 26 -5 0
-20 24 -34 53 l-25 52 -5 780 c-5 744 -4 781 13 808 10 16 16 35 13 44 -8 20
65 103 107 122 18 7 48 17 67 21 19 4 382 8 806 9 690 1 773 -1 785 -15z
m-2081 -1346 c0 -848 0 -858 20 -878 20 -20 30 -20 883 -20 l862 0 0 -105 0
-105 -891 0 c-792 0 -893 2 -904 15 -7 9 -20 13 -28 10 -8 -3 -29 8 -48 25
-19 16 -39 30 -44 30 -5 0 -19 21 -32 48 l-23 47 -5 893 c-3 492 -3 896 -1
898 3 3 52 3 108 2 l104 -3 -1 -857z"/>
<path d="M2798 3262 c-18 -13 -19 -29 -18 -330 1 -175 1 -324 0 -332 0 -10 -8
-5 -23 14 -23 28 -24 29 -134 30 -92 0 -115 -3 -131 -17 -10 -9 -25 -17 -33
-17 -14 0 -58 -40 -128 -118 -36 -40 -39 -48 -45 -120 -12 -157 11 -207 155
-332 45 -39 47 -40 145 -45 76 -4 105 -2 124 10 14 8 39 21 55 29 32 16 59 42
128 120 l42 49 3 393 4 394 172 0 c216 0 206 -7 206 146 0 60 -4 115 -9 122
-12 20 -485 23 -513 4z"/>
</g>
</svg>
